<!DOCTYPE svg PUBLIC "-//W3C//DTD SVG 1.1//EN" "http://www.w3.org/Graphics/SVG/1.1/DTD/svg11.dtd">
<!-- Uploaded to: SVG Repo, www.svgrepo.com, Transformed by: SVG Repo Mixer Tools -->
<svg fill="#ffffff" version="1.1" id="Capa_1" xmlns="http://www.w3.org/2000/svg" xmlns:xlink="http://www.w3.org/1999/xlink" width="800px" height="800px" viewBox="0 0 96.5 96.5" xml:space="preserve" stroke="#ffffff">
<g id="SVGRepo_bgCarrier" stroke-width="0"/>
<g id="SVGRepo_tracerCarrier" stroke-linecap="round" stroke-linejoin="round"/>
<g id="SVGRepo_iconCarrier"> <g> <g> <path d="M84.5,10.495c-0.344,0-0.684,0.023-1.02,0.052c-0.084-0.023-0.166-0.052-0.256-0.052H34c-6.617,0-12,5.383-12,12v50.51H1 c-0.553,0-1,0.446-1,1c0,6.616,5.383,12,12,12c0.246,0,0.464-0.1,0.638-0.246c0.174,0.146,0.392,0.246,0.638,0.246H62.5 c6.617,0,12-5.384,12-12c0-0.09-0.029-0.172-0.051-0.254c0.021-0.084,0.051-0.164,0.051-0.255v-3.25v-46.75h21 c0.553,0,1-0.447,1-1C96.5,15.878,91.117,10.495,84.5,10.495z M94.449,21.495H74.551c0.504-5.046,4.773-9,9.949-9 S93.945,16.449,94.449,21.495z M13.276,84.005c-0.246,0-0.464,0.102-0.638,0.246c-0.174-0.146-0.392-0.246-0.638-0.246 c-5.176,0-9.446-3.955-9.949-9h48.5c0.312,3.754,2.354,7.021,5.33,9H13.276z M62.5,84.005c-5.514,0-10-4.484-10-10 c0-0.554-0.447-1-1-1H24v-50.51c0-5.514,4.486-10,10-10h43.881c-3.238,2.151-5.381,5.828-5.381,10v47.75v3.25 c0,0.09,0.029,0.172,0.051,0.254c-0.021,0.084-0.051,0.164-0.051,0.254C72.5,79.519,68.014,84.005,62.5,84.005z"/> <path d="M63.75,64.245h-28c-0.553,0-1,0.445-1,1c0,0.553,0.447,1,1,1h28c0.553,0,1-0.447,1-1 C64.75,64.69,64.303,64.245,63.75,64.245z"/> <path d="M63.75,54.245h-28c-0.553,0-1,0.445-1,1c0,0.553,0.447,1,1,1h28c0.553,0,1-0.447,1-1 C64.75,54.69,64.303,54.245,63.75,54.245z"/> <path d="M63.75,44.245h-28c-0.553,0-1,0.447-1,1c0,0.553,0.447,1,1,1h28c0.553,0,1-0.447,1-1 C64.75,44.692,64.303,44.245,63.75,44.245z"/> <path d="M63.75,34.245h-28c-0.553,0-1,0.447-1,1c0,0.553,0.447,1,1,1h28c0.553,0,1-0.447,1-1 C64.75,34.692,64.303,34.245,63.75,34.245z"/> <path d="M63.75,24.245h-28c-0.553,0-1,0.447-1,1c0,0.553,0.447,1,1,1h28c0.553,0,1-0.447,1-1 C64.75,24.692,64.303,24.245,63.75,24.245z"/> </g> </g> </g>
</svg>