<!DOCTYPE svg PUBLIC "-//W3C//DTD SVG 1.1//EN" "http://www.w3.org/Graphics/SVG/1.1/DTD/svg11.dtd">
<!-- Uploaded to: SVG Repo, www.svgrepo.com, Transformed by: SVG Repo Mixer Tools -->
<svg fill="#FFFFFF" height="800px" width="800px" version="1.1" id="Layer_1" xmlns="http://www.w3.org/2000/svg" xmlns:xlink="http://www.w3.org/1999/xlink" viewBox="0 0 300.039 300.039" xml:space="preserve" stroke="#FFFFFF" transform="rotate(0)matrix(1, 0, 0, 1, 0, 0)">
<g id="SVGRepo_bgCarrier" stroke-width="0"/>
<g id="SVGRepo_tracerCarrier" stroke-linecap="round" stroke-linejoin="round"/>
<g id="SVGRepo_iconCarrier"> <g> <g> <g> <path d="M236.764,185.889c-6.285,0-12.495,1.058-18.518,3.165l-24.465-24.48c0.6-2.888,0.907-5.655,0.907-8.363 c0-4.155-0.63-8.325-1.86-12.48l62.813-107.655c0.675-1.14,1.028-2.445,1.028-3.78c0-15.075-13.11-28.605-14.602-30.098 c-1.538-1.53-3.63-2.265-5.798-2.182c-2.167,0.158-4.162,1.238-5.467,2.955l-80.783,106.29L69.245,2.971 c-1.313-1.732-3.308-2.797-5.468-2.955c-2.227-0.142-4.275,0.645-5.805,2.175C56.479,3.699,43.37,17.221,43.37,32.296 c0,1.335,0.352,2.64,1.027,3.78l62.813,107.662c-1.237,4.148-1.86,8.34-1.86,12.488c0,2.737,0.292,5.475,0.908,8.378 l-24.465,24.465c-6.03-2.108-12.24-3.165-18.518-3.165c-31.47,0-57.068,25.605-57.068,57.068 c0,31.463,25.598,57.067,57.068,57.067c31.47,0,57.06-25.605,57.06-57.067c0-8.055-1.763-15.953-5.287-23.512 c9.008-13.305,13.388-18.668,15.458-20.745c0.547-0.54,1.17-1.087,1.867-1.597c11.325,4.995,23.947,4.995,35.302,0 c0.69,0.51,1.29,1.042,1.815,1.552c2.107,2.122,6.503,7.485,15.48,20.783c-3.518,7.56-5.287,15.443-5.287,23.497 c0,31.477,25.605,57.082,57.067,57.082c31.47,0,57.083-25.612,57.083-57.075C293.832,211.494,268.227,185.889,236.764,185.889z M236.772,285.039c-23.198,0-42.068-18.862-42.068-42.083c0-6.96,1.845-13.815,5.505-20.362c1.38-2.46,1.26-5.467-0.307-7.823 c-9.218-13.83-15.69-22.56-19.823-26.722c-2.272-2.228-4.972-4.223-8.28-6.083c-1.125-0.645-2.415-0.967-3.675-0.967 c-1.275,0-2.535,0.323-3.66,0.938c-9.27,5.198-19.605,5.198-28.875,0c-2.272-1.275-5.055-1.275-7.342,0 c-3.315,1.86-6.023,3.833-8.34,6.135c-4.08,4.117-10.552,12.833-19.77,26.677c-1.56,2.355-1.688,5.362-0.307,7.823 c3.653,6.547,5.505,13.402,5.505,20.362c0,23.197-18.87,42.083-42.06,42.083s-42.068-18.878-42.068-42.083 c0-23.182,18.862-42.068,42.068-42.068c5.843,0,11.663,1.275,17.25,3.81c2.828,1.26,6.18,0.66,8.385-1.537l30.975-30.983 c1.958-1.965,2.663-4.815,1.875-7.47c-0.952-3.195-1.41-5.888-1.41-8.483c0-3.495,0.69-7.065,2.055-10.628 c0.825-2.122,0.622-4.492-0.525-6.465L58.512,30.504c0.503-3.668,2.475-7.538,4.605-10.8l79.087,104.085 c1.523,2.025,4.028,3.105,6.487,2.948c0.473-0.023,0.945-0.09,1.245-0.158c0.465,0.052,0.915,0.128,1.387,0.158 c2.648,0.247,4.98-0.922,6.503-2.948l79.11-104.055c2.122,3.255,4.102,7.133,4.597,10.8l-63.352,108.607 c-1.155,1.95-1.343,4.328-0.54,6.45c1.357,3.57,2.047,7.147,2.047,10.635c0,2.61-0.443,5.302-1.41,8.482 c-0.788,2.633-0.075,5.505,1.875,7.47l30.982,30.983c2.198,2.212,5.535,2.797,8.378,1.522c5.595-2.52,11.4-3.795,17.258-3.795 c23.182,0,42.052,18.878,42.052,42.068C278.824,266.154,259.962,285.039,236.772,285.039z"/> <path d="M65.329,210.654c-17.797,0-32.287,14.49-32.287,32.288c0,17.812,14.49,32.302,32.287,32.302 c17.813,0,32.295-14.482,32.295-32.302C97.624,225.144,83.142,210.654,65.329,210.654z M65.329,260.251 c-9.532,0-17.287-7.762-17.287-17.288c0-9.54,7.755-17.302,17.287-17.302c9.533,0,17.288,7.763,17.295,17.302 C82.624,252.504,74.862,260.251,65.329,260.251z"/> <path d="M238.819,210.654c-17.797,0-32.287,14.49-32.287,32.288c0,17.812,14.49,32.302,32.287,32.302 c17.813,0,32.295-14.482,32.303-32.302C271.122,225.144,256.632,210.654,238.819,210.654z M238.819,260.251 c-9.54,0-17.287-7.762-17.287-17.288c0-9.54,7.755-17.302,17.287-17.302c9.533,0,17.303,7.763,17.303,17.302 C256.122,252.504,248.359,260.251,238.819,260.251z"/> </g> </g> </g> </g>
</svg>